<?xml version="1.0" encoding="UTF-8" standalone="no"?>
<svg
   xmlns:dc="http://purl.org/dc/elements/1.1/"
   xmlns:cc="http://creativecommons.org/ns#"
   xmlns:rdf="http://www.w3.org/1999/02/22-rdf-syntax-ns#"
   xmlns:svg="http://www.w3.org/2000/svg"
   xmlns="http://www.w3.org/2000/svg"
   width="216"
   height="216"
   viewBox="0 0 216 216"
   version="1.1"
   id="svg886">
  <metadata
     id="metadata892">
    <rdf:RDF>
      <cc:Work
         rdf:about="">
        <dc:format>image/svg+xml</dc:format>
        <dc:type
           rdf:resource="http://purl.org/dc/dcmitype/StillImage" />
        <dc:title>
    link
  </dc:title>
      </cc:Work>
    </rdf:RDF>
  </metadata>
  <defs
     id="defs890" />
  <title
     id="title880">
    link
  </title>
  <g
     transform="matrix(7.19505,0,0,8.4822967,36.0495,23.177033)"
     id="g1452"
     style="fill:#56575b">
    <path
       id="path882"
       d="M 4.83,15 H 7.74 A 4.88,4.88 0 0 1 6.19,13 H 5 A 3,3 0 1 1 5,7 h 3 a 3,3 0 0 1 2.82,4 h 2.1 A 4.82,4.82 0 0 0 13,10.17 V 9.83 A 4.83,4.83 0 0 0 8.17,5 H 4.83 A 4.83,4.83 0 0 0 0,9.83 v 0.34 A 4.83,4.83 0 0 0 4.83,15 Z" />
    <path
       id="path884"
       d="m 15.17,5 h -2.91 a 4.88,4.88 0 0 1 1.55,2 H 15 a 3,3 0 1 1 0,6 H 12 A 3,3 0 0 1 9.18,9 H 7.08 A 4.82,4.82 0 0 0 7,9.83 v 0.34 A 4.83,4.83 0 0 0 11.83,15 h 3.34 A 4.83,4.83 0 0 0 20,10.17 V 9.83 A 4.83,4.83 0 0 0 15.17,5 Z" />
  </g>
</svg>
