<?xml version="1.0" encoding="UTF-8" standalone="no"?>
<svg
   xmlns:dc="http://purl.org/dc/elements/1.1/"
   xmlns:cc="http://creativecommons.org/ns#"
   xmlns:rdf="http://www.w3.org/1999/02/22-rdf-syntax-ns#"
   xmlns:svg="http://www.w3.org/2000/svg"
   xmlns="http://www.w3.org/2000/svg"
   id="svg248"
   xml:space="preserve"
   viewBox="0 0 230.00001 76.328006"
   y="0px"
   x="0px"
   version="1.1"
   width="230"
   height="76.328003"><metadata
     id="metadata254"><rdf:RDF><cc:Work
         rdf:about=""><dc:format>image/svg+xml</dc:format><dc:type
           rdf:resource="http://purl.org/dc/dcmitype/StillImage" /><dc:title></dc:title></cc:Work></rdf:RDF></metadata><defs
     id="defs252" /><g
     transform="matrix(0.32086096,0,0,0.32086096,-6.5581747,-4.6709367)"
     id="g97"><path
       d="M 165,110.1 V 40 h 23.2 v 70.1 z"
       id="path176" /><path
       d="M 290.5,110.1 V 40 h 23.2 v 70.1 z"
       id="path178" /><path
       d="m 449.6,100.2 -3.6,9.9 H 422.2 L 451.8,40 h 23.8 l 28.5,70.1 h -24.7 l -3.5,-9.9 z M 463,63.1 455.6,83.6 h 14.6 z"
       id="path180" /><path
       d="M 601.1,110.1 V 40 h 23.2 v 70.1 z"
       id="path182" /><path
       d="m 104.1,165.3 -8.1,17 c -6.9,-3.8 -17.4,-7.9 -23.3,-7.9 -2.5,0 -4.2,0.8 -4.2,2.8 0,8.5 35.1,3.2 35.1,27.7 0,15.1 -13.2,21.7 -28.5,21.7 -11.8,0 -24.9,-4 -33.9,-10.8 L 49.6,199 c 7,5.8 18.9,10.5 25.8,10.5 3.3,0 5.4,-1.1 5.4,-3.5 0,-8.8 -35.1,-3 -35.1,-26.8 0,-13.5 11.4,-22 29,-22 10.7,0.1 21.8,3.3 29.4,8.1 z"
       id="path184" /><path
       d="m 250.3,192.1 c 0,20.1 -15.6,34.9 -37.2,34.9 -21.6,0 -37.2,-14.7 -37.2,-34.9 0,-20.1 15.6,-34.5 37.2,-34.5 21.6,0 37.2,14.5 37.2,34.5 z m -51.4,0.1 c 0,9.3 6.8,16.1 14.5,16.1 7.7,0 13.9,-6.9 13.9,-16.1 0,-9.3 -6.2,-15.9 -13.9,-15.9 -7.8,-0.1 -14.5,6.6 -14.5,15.9 z"
       id="path186" /><path
       d="m 362.8,202.7 -6.6,7.3 v 16 h -22.4 v -67.7 h 22.4 v 23.5 l 20.2,-23.5 h 25.8 L 378,185.5 403.6,226 h -26.8 z"
       id="path188" /><path
       d="m 565.7,192.1 c 0,20.1 -15.6,34.9 -37.2,34.9 -21.5,0 -37.2,-14.7 -37.2,-34.9 0,-20.1 15.6,-34.5 37.2,-34.5 21.5,0 37.2,14.5 37.2,34.5 z m -51.4,0.1 c 0,9.3 6.8,16.1 14.5,16.1 7.7,0 13.9,-6.9 13.9,-16.1 0,-9.3 -6.2,-15.9 -13.9,-15.9 -7.8,-0.1 -14.5,6.6 -14.5,15.9 z"
       id="path190" /><path
       style="fill:#dd1768"
       id="path192"
       d="M 75.8,103.4 C 75.5,103 69.7,95.1 63.4,93.1 c -1.8,-0.6 -4.1,-0.3 -6,0.5 l 4.5,13.9 c 6.2,0 13.5,-3.9 13.9,-4.1 v 0 c 0,0 0,0 0,0 0,0 0,0 0,0 z"
       class="st6" /><path
       style="fill:#dd1768"
       id="path194"
       d="m 57.3,93.5 c 0,0 0,0 0,0 0.1,0 0.1,-0.1 0.1,-0.1 2.8,-1.8 4.6,-5.8 4.1,-8.9 C 60.5,78 53.6,71 53.2,70.7 v 0 c 0,0 0,0 0,0 0,0 0,0 0,0 v 0 c -0.1,0.2 -1.1,1.5 -2.2,3.4 z"
       class="st6" /><path
       style="fill:#dd1768"
       id="path196"
       d="m 139.9,70.7 v 0 c 0,0 0,0 0,0 0,0 0,0 0,0 v 0 c -0.4,0.3 -7.3,7.3 -8.3,13.8 -0.5,3.1 1.3,7 4,8.8 L 142,73.8 c -1.1,-1.8 -2,-3 -2.1,-3.1 z"
       class="st6" /><path
       style="fill:#dd1768"
       id="path198"
       d="m 109.8,105.1 v 0 c 0,0 0,0 0,0 0,0 0,0 0,0 v 0 c 0.4,-0.5 7.9,-10.7 16.1,-13.3 2.4,-0.8 5.4,-0.4 8.1,0.7 -3.2,-2.5 -5.3,-7.3 -4.7,-11 1.3,-8.5 10.3,-17.5 10.7,-18 v 0 c 0,0 0,0 0,0 0,0 0,0 0,0 v 0 c 0.2,0.2 1.8,2.4 3.5,5.5 L 153,40 H 129.4 L 119,86 108.4,40 85.8,40.1 75.4,86 64.8,40 H 40 l 9.5,29.3 c 1.8,-3.2 3.5,-5.5 3.7,-5.8 v 0 c 0,0 0,0 0,0 0,0 0,0 0,0 v 0 c 0.4,0.4 9.4,9.5 10.7,17.9 0.6,3.8 -1.5,8.6 -4.7,11 2.6,-1.1 5.7,-1.4 8.1,-0.7 8.1,2.6 15.7,12.8 16.1,13.3 v 0 c 0,0 0,0 0,0 0,0 0,0 0,0 v 0 c -0.4,0.2 -7.5,4 -14.6,5 h 17.8 l 10,-41.9 9.7,41.9 h 18.2 c -7.2,-0.9 -14.2,-4.7 -14.7,-4.9 z"
       class="st6" /><path
       style="fill:#dd1768"
       id="path200"
       d="m 117.4,103.4 c 0.4,0.2 7.5,3.9 13.6,4 l 4.6,-14 c -1.9,-0.7 -4.1,-0.9 -5.8,-0.3 -6.3,2 -12.1,9.9 -12.4,10.3 v 0 c 0,0 0,0 0,0 0,0 0,0 0,0 z"
       class="st6" /><path
       class="st16"
       d="M 386.2,40 370.9,76.6 355.6,40 h -24.5 v 70.1 h 20.2 V 71.7 l 12,31.6 h 15.2 l 12,-31.6 v 38.4 h 20.2 V 40 Z m 11.9,58.5 c 0,0 0,0 0,0 v 0 c 0,0 0,0 0,0 2.3,-4.1 3.5,-9.9 0.3,-17.7 -5.6,-13.3 2,-20.9 5.6,-23.7 0,0 0,0 0,0 v 0 c 0,0 0,0 0,0 -2.3,4.1 -3.5,9.9 -0.3,17.7 5.5,13.3 -2,20.9 -5.6,23.7 z"
       id="path204"
       style="fill:#4ca046" /><path
       d="m 692.4,158.3 -14.8,35.3 -14.8,-35.3 H 639.1 V 226 h 19.5 v -37.1 l 11.6,30.5 H 685 l 11.6,-30.5 V 226 h 19.5 v -67.7 z"
       id="path206" /><path
       class="st5"
       d="M 562.6,40 V 76 L 534.9,40 h -19.4 v 70.1 h 21.1 V 74.3 l 27.6,35.8 h 19.4 V 40 Z M 562,96 v 0 c 0,0 0,-0.1 0,0 -0.7,-4.6 -3.2,-10 -10.6,-14.2 -12.5,-7.2 -11.2,-17.8 -10,-22.1 0,0 0,0 0,0 v 0 c 0,0 0,0 0,0 0.7,4.6 3.2,10 10.6,14.2 12.5,7.1 11.2,17.7 10,22.1 0,-0.1 0,0 0,0 z m 9.1,2.5 c 0,0 0,0 0,0 v 0 c 0,0 0,0 0,0 2.3,-4.1 3.5,-9.9 0.3,-17.7 -5.6,-13.3 2,-20.9 5.6,-23.7 0,0 0,0 0,0 v 0 c 0,0 0,0 0,0 -2.3,4.1 -3.5,9.9 -0.3,17.7 5.5,13.3 -2,20.9 -5.6,23.7 z"
       id="path208"
       style="fill:#f26a2c" /><path
       class="st11"
       d="M 110.5,158.3 V 176 h 19.2 v 50 h 22.4 v -50 h 19.3 v -17.7 z m 28.7,57.1 c 0,0 0,0 0,0 v 0 c 0,0 0,0 0,0 2.1,-4.2 2.9,-10.1 -0.8,-17.6 -6.3,-13 0.8,-21 4.2,-23.9 0,0 0,0 0,0 v 0 c 0,0 0,0 0,0 -2,4.2 -2.9,10.1 0.8,17.6 6.3,12.9 -0.8,21 -4.2,23.9 z"
       id="path210"
       style="fill:#407f44" /><path
       class="st17"
       d="m 457.2,158.3 v 26.3 h -21 V 158.3 H 413.8 V 226 h 22.4 v -24.4 h 21 V 226 h 22.4 v -67.7 z m 2.9,29.7 c -2.4,3.8 -9.3,12 -23.1,7.7 -8,-2.5 -13.7,-0.8 -17.6,1.8 0,0 0,0 0,0 v 0 c 0,0 0,0 0,0 2.4,-3.8 9.3,-12 23.1,-7.7 8.1,2.6 13.8,0.9 17.6,-1.8 0,0 0,0 0,0 v 0 c 0,0 0,0 0,0 z m 6.1,26.7 c 0,0 0,0 0,0 v 0 c 0,0 0,0 0,0 2.2,-4.1 3.3,-10 -0.1,-17.7 -5.9,-13.2 1.5,-21 5,-23.8 0,0 0,0 0,0 v 0 c 0,0 0,0 0,0 -2.2,4.1 -3.3,10 0.1,17.7 5.9,13.2 -1.5,21 -5,23.8 z"
       id="path212"
       style="fill:#c5202e" /><path
       class="st20"
       d="M 251.5,68.2 276.5,40 H 249.8 L 228.9,64.3 V 40 h -23.2 v 70.1 h 23.2 V 93.6 l 6.8,-7.6 14.6,24.1 H 278 Z m -36.7,28.1 c 0,0 0,0 0,0 v 0 c 0,0 0,0 0,0 2.1,-4.2 2.9,-10.1 -0.8,-17.6 -6.3,-13 0.8,-21 4.2,-23.9 0,0 0,0 0,0 v 0 c 0,0 0,0 0,0 -2.1,4.2 -2.9,10.1 0.8,17.6 6.3,13 -0.8,21 -4.2,23.9 z m 14,-24.9 c 0,0 0,0 0,0 v 0 c 0,0 0,0 0,0 4.5,-1.1 9.6,-4.1 13.1,-11.8 6,-13.1 16.7,-12.8 21.1,-12 0,0 0,0 0,0 v 0 c 0,0 0,0 0,0 -4.5,1.1 -9.6,4.1 -13.1,11.8 -5.9,13.2 -16.7,12.8 -21.1,12 z m 19,17.9 c -3.1,-7.8 -8,-11.2 -12.5,-12.5 0,0 0,0 0,0 v 0 c 0,0 0,0 0,0 4.5,-0.5 15.2,-0.3 20.4,13.1 3.1,7.8 8,11.2 12.5,12.5 0,0 0,0 0,0 v 0 c 0,0 0,0 0,0 -4.4,0.6 -15.1,0.4 -20.4,-13.1 z"
       id="path214"
       style="fill:#01699e" /><path
       style="fill:#ef402c"
       id="path216"
       d="m 274.7,211.7 c 0.5,0 10.4,-1 15.4,-5.5 -4.6,-1.9 -7.7,-6.4 -8.4,-12.1 -0.9,0.5 -1.7,1.1 -2.3,1.9 -4.2,5.3 -4.7,15.2 -4.7,15.7 v 0 c 0,0 0,0 0,0 0,0 0,0 0,0 z"
       class="st18" /><path
       style="fill:#ef402c"
       id="path218"
       d="m 289.1,176.9 c 0.2,0.2 0.3,0.5 0.4,0.7 1.8,-0.9 3.8,-1.4 6.1,-1.4 5.2,0 11.3,3.6 15.4,9.1 l 12.9,-15.4 c -7,-7.5 -18.3,-12.4 -28.6,-12.4 -9.3,0 -17.5,2.8 -23.8,7.6 1,0.5 12.8,4.8 17.6,11.8 z"
       class="st18" /><path
       style="fill:#ef402c"
       id="path220"
       d="m 276.1,187.7 c 0.9,2 3.1,3.8 5.4,4.6 0,-0.2 0,-0.4 0,-0.7 0,-5.6 2.3,-10.3 6.1,-13 -4.3,-4.5 -11.9,-7.2 -12.3,-7.4 v 0 c 0,0 0,0 0,0 0,0 0,0 0,0 v 0 c -0.1,0.6 -2,10.4 0.8,16.5 z"
       class="st18" /><path
       style="fill:#ef402c"
       id="path222"
       d="m 295.6,207.3 c -1.3,0 -2.6,-0.2 -3.8,-0.5 -0.6,1.4 -1.5,2.6 -2.5,3.5 -6.5,5.8 -19.4,7.1 -20,7.1 v 0 c 0,0 0,0 0,0 0,0 0,0 0,0 v 0 c 0,-0.6 0.7,-13.5 6.1,-20.3 1.4,-1.8 3.7,-3.1 6.2,-3.7 0,-0.1 0,-0.2 0,-0.4 -3.8,-0.6 -7.7,-3.3 -9.2,-6.6 -3.5,-7.7 -1.3,-19.9 -1.1,-21.1 -8,6.2 -12.8,15.6 -12.8,26.7 0,20.2 15.1,35 35.8,35 10.4,0 21.9,-5.3 29.5,-13.5 l -12.9,-13.8 c -4.4,4.6 -10.5,7.6 -15.3,7.6 z"
       class="st18" /><path
       style="fill:#29bee2"
       id="path226"
       d="m 586.4,181 c 0,0.5 1,10.2 5.3,15.2 1.8,2 5.2,3.1 8.1,2.8 v -14.6 c -5.3,-3 -13,-3.4 -13.4,-3.4 v 0 c 0,0 0,0 0,0 0,0 0,0 0,0 z"
       class="st19" /><path
       style="fill:#29bee2"
       id="path228"
       d="m 597,219.2 c 0,0 0,0.1 0,0 v 0 c 0.5,-0.2 9.5,-3.9 13,-9.5 0.4,-0.7 0.8,-1.5 0.9,-2.4 h -11.2 v -7.5 c -1.2,0.9 -2.2,2.1 -2.7,3.3 -2.4,6.1 -0.1,15.7 0,16.1 v 0 c 0,0 0,0 0,0 z"
       class="st19" /><path
       style="fill:#29bee2"
       id="path230"
       d="m 611.9,207.3 c 0.1,2.4 -0.4,4.7 -1.5,6.5 -4.2,6.7 -14.5,11.3 -16.5,12.1 H 628 v -18.6 z"
       class="st19" /><path
       style="fill:#29bee2"
       id="path232"
       d="m 593.6,205.2 c 1,-2.3 3.2,-4.5 5.7,-5.8 -3.9,0.9 -9,-0.6 -11.5,-3.5 -5.6,-6.4 -6.8,-19.1 -6.9,-19.7 v 0 c 0,0 0,0 0,0 0,0 0,0 0,0 v 0 c 0.6,0 12,0.7 18.8,5.3 V 158.2 H 577.3 V 226 h 16.1 c -0.3,-1.5 -2.9,-13.2 0.2,-20.8 z"
       class="st19" /><path
       style="fill:#a21c44"
       id="path236"
       d="m 694.2,92.5 c -0.5,0 -10.2,0.9 -15.2,5.3 -0.7,0.6 -1.3,1.5 -1.8,2.4 h 12.3 l 1.7,4.9 c 2.6,-5.3 3,-12.2 3,-12.6 v 0 c 0,0 0,0 0,0 0,0 0,-0.1 0,0 z"
       class="st3" /><path
       style="fill:#a21c44"
       id="path238"
       d="m 658,92.5 c 0,0.4 0.5,7.7 3.2,13 l 1.9,-5.3 H 675 c -0.5,-1 -1.1,-1.8 -1.8,-2.4 -5,-4.4 -14.7,-5.3 -15.2,-5.3 v 0 c 0,-0.1 0,0 0,0 0,0 0,0 0,0 z"
       class="st3" /><path
       style="fill:#a21c44"
       id="path240"
       d="m 689.2,40 h -23.8 l -29.6,70.1 h 23.8 l 0.7,-1.8 c -0.5,-0.4 -1,-0.9 -1.4,-1.4 -5.4,-6.6 -6.1,-19.3 -6.2,-19.9 v 0 c 0,0 0,0 0,0 0,0 0,0 0,0 v 0 c 0.6,0.1 13.3,1.2 19.7,6.8 1.7,1.5 2.9,3.9 3.5,6.4 h 0.6 c 0.5,-2.5 1.7,-4.9 3.5,-6.4 6.4,-5.6 19.1,-6.8 19.7,-6.8 v 0 c 0,0 0,0 0,0 0,0 0,0 0,0 v 0 c 0,0.6 -0.8,13.3 -6.2,19.9 -0.3,0.4 -0.8,0.8 -1.2,1.2 l 0.7,2 h 24.7 z m -20,43.6 7.4,-20.5 7.2,20.5 z"
       class="st3" /></g></svg>