<?xml version="1.0" encoding="utf-8"?>
<!-- Generator: Adobe Illustrator 23.0.3, SVG Export Plug-In . SVG Version: 6.00 Build 0)  -->
<svg version="1.1" xmlns="http://www.w3.org/2000/svg" xmlns:xlink="http://www.w3.org/1999/xlink" x="0px" y="0px"
	 viewBox="0 0 677.6 186.9" style="enable-background:new 0 0 677.6 186.9;" xml:space="preserve">
<style type="text/css">
	.st0{clip-path:url(#SVGID_2_);fill:#FFFFFF;}
	.st1{clip-path:url(#SVGID_2_);}
	.st2{fill:#205C2E;}
	.st3{fill:#A21C44;}
	.st4{fill:#5CBA47;}
	.st5{fill:#F26A2C;}
	.st6{fill:#DD1768;}
	.st7{fill:#1C97D4;}
	.st8{fill:#FAC315;}
	.st9{fill:#FFFFFF;}
	.st10{fill:#E4253C;}
	.st11{fill:#407F44;}
	.st12{fill:#18496B;}
	.st13{fill:#F99D29;}
	.st14{fill:#BF8B2C;}
	.st15{fill:#DEA73A;}
	.st16{fill:#4CA046;}
	.st17{fill:#C5202E;}
	.st18{fill:#EF402C;}
	.st19{fill:#29BEE2;}
	.st20{fill:#01699E;}
	.st21{fill:none;stroke:#939598;stroke-width:0.75;stroke-miterlimit:10;}
	.st22{fill:none;stroke:#000000;stroke-miterlimit:10;}
	.st23{fill:#525352;}
	.st24{fill:#414042;}
	.st25{fill:none;stroke:#939598;stroke-miterlimit:10;}
	.st26{fill:#C9DEE4;}
	.st27{fill:#F6F5E9;}
	.st28{fill:#B1CFC7;}
	.st29{fill:#53A55A;}
	.st30{fill:#D9E4F1;}
	.st31{fill:#F3F0EB;}
	.st32{fill:#CBE5D8;}
	.st33{fill:#DAEEE2;}
	.st34{fill:none;stroke:#205C2E;stroke-width:3;stroke-miterlimit:10;}
	.st35{opacity:0.5;}
	.st36{fill:none;stroke:#000000;stroke-width:0.75;stroke-miterlimit:10;}
	.st37{opacity:0.2;clip-path:url(#SVGID_24_);}
	.st38{clip-path:url(#SVGID_24_);}
	.st39{opacity:0.15;clip-path:url(#SVGID_24_);}
	.st40{opacity:0.15;clip-path:url(#SVGID_26_);}
	.st41{clip-path:url(#SVGID_26_);}
	.st42{opacity:0.2;clip-path:url(#SVGID_28_);}
	.st43{clip-path:url(#SVGID_28_);}
	.st44{opacity:0.15;clip-path:url(#SVGID_28_);}
	.st45{fill:none;stroke:#000000;stroke-width:2;stroke-miterlimit:10;}
	.st46{opacity:0.15;clip-path:url(#SVGID_30_);}
	.st47{clip-path:url(#SVGID_30_);}
	.st48{clip-path:url(#SVGID_32_);}
	.st49{opacity:0.15;clip-path:url(#SVGID_32_);}
	.st50{opacity:0.2;clip-path:url(#SVGID_34_);}
	.st51{clip-path:url(#SVGID_34_);}
	.st52{opacity:0.15;clip-path:url(#SVGID_34_);}
	.st53{opacity:0.2;clip-path:url(#SVGID_36_);}
	.st54{clip-path:url(#SVGID_36_);}
	.st55{opacity:0.15;clip-path:url(#SVGID_36_);}
	.st56{clip-path:url(#SVGID_38_);fill:#FFFFFF;}
	.st57{clip-path:url(#SVGID_38_);}
	.st58{clip-path:url(#SVGID_40_);fill:#FFFFFF;}
	.st59{clip-path:url(#SVGID_40_);}
	.st60{clip-path:url(#SVGID_42_);fill:#FFFFFF;}
	.st61{clip-path:url(#SVGID_42_);}
	.st62{fill:none;stroke:#FFFFFF;stroke-width:14;stroke-miterlimit:10;}
	.st63{clip-path:url(#SVGID_44_);}
	.st64{clip-path:url(#SVGID_46_);}
	.st65{clip-path:url(#SVGID_48_);}
	.st66{fill:#036A9E;}
	.st67{clip-path:url(#SVGID_50_);}
	.st68{fill:none;stroke:#205C2E;stroke-width:3.5;stroke-miterlimit:10;}
	.st69{fill:none;stroke:#205C2E;stroke-width:4;stroke-linecap:round;stroke-linejoin:round;stroke-miterlimit:10;}
	.st70{clip-path:url(#SVGID_52_);}
	.st71{opacity:0.7;}
	.st72{fill:none;stroke:#FFFFFF;stroke-width:2;stroke-miterlimit:10;}
	.st73{clip-path:url(#SVGID_54_);}
	.st74{clip-path:url(#SVGID_56_);}
</style>
<g id="Layer_1">
	<g>
		<path d="M125,70.1V0h23.2v70.1H125z"/>
		<path d="M250.5,70.1V0h23.2v70.1H250.5z"/>
		<path d="M409.6,60.2l-3.6,9.9h-23.8L411.8,0h23.8l28.5,70.1h-24.7l-3.5-9.9H409.6z M423,23.1l-7.4,20.5h14.6L423,23.1z"/>
		<path d="M561.1,70.1V0h23.2v70.1H561.1z"/>
		<path d="M64.1,125.3l-8.1,17c-6.9-3.8-17.4-7.9-23.3-7.9c-2.5,0-4.2,0.8-4.2,2.8c0,8.5,35.1,3.2,35.1,27.7
			c0,15.1-13.2,21.7-28.5,21.7c-11.8,0-24.9-4-33.9-10.8L9.6,159c7,5.8,18.9,10.5,25.8,10.5c3.3,0,5.4-1.1,5.4-3.5
			c0-8.8-35.1-3-35.1-26.8c0-13.5,11.4-22,29-22C45.4,117.3,56.5,120.5,64.1,125.3z"/>
		<path d="M210.3,152.1c0,20.1-15.6,34.9-37.2,34.9s-37.2-14.7-37.2-34.9c0-20.1,15.6-34.5,37.2-34.5S210.3,132.1,210.3,152.1z
			 M158.9,152.2c0,9.3,6.8,16.1,14.5,16.1c7.7,0,13.9-6.9,13.9-16.1c0-9.3-6.2-15.9-13.9-15.9C165.6,136.2,158.9,142.9,158.9,152.2z
			"/>
		<path d="M322.8,162.7l-6.6,7.3V186h-22.4v-67.7h22.4v23.5l20.2-23.5h25.8L338,145.5l25.6,40.5h-26.8L322.8,162.7z"/>
		<path d="M525.7,152.1c0,20.1-15.6,34.9-37.2,34.9c-21.5,0-37.2-14.7-37.2-34.9c0-20.1,15.6-34.5,37.2-34.5
			C510,117.6,525.7,132.1,525.7,152.1z M474.3,152.2c0,9.3,6.8,16.1,14.5,16.1s13.9-6.9,13.9-16.1c0-9.3-6.2-15.9-13.9-15.9
			C481,136.2,474.3,142.9,474.3,152.2z"/>
		<g>
			<path class="st6" d="M35.8,63.4c-0.3-0.4-6.1-8.3-12.4-10.3c-1.8-0.6-4.1-0.3-6,0.5l4.5,13.9C28.1,67.5,35.4,63.6,35.8,63.4
				L35.8,63.4C35.8,63.4,35.8,63.4,35.8,63.4C35.8,63.4,35.8,63.4,35.8,63.4L35.8,63.4z"/>
			<path class="st6" d="M17.3,53.5C17.3,53.5,17.3,53.5,17.3,53.5c0.1,0,0.1-0.1,0.1-0.1c2.8-1.8,4.6-5.8,4.1-8.9
				c-1-6.5-7.9-13.5-8.3-13.8l0,0c0,0,0,0,0,0c0,0,0,0,0,0l0,0c-0.1,0.2-1.1,1.5-2.2,3.4L17.3,53.5z"/>
			<path class="st6" d="M99.9,30.7L99.9,30.7C99.9,30.7,99.9,30.7,99.9,30.7C99.9,30.7,99.9,30.7,99.9,30.7L99.9,30.7
				c-0.4,0.3-7.3,7.3-8.3,13.8c-0.5,3.1,1.3,7,4,8.8l6.4-19.5C100.9,32,100,30.8,99.9,30.7z"/>
			<path class="st6" d="M69.8,65.1L69.8,65.1C69.8,65.1,69.8,65.1,69.8,65.1C69.8,65.1,69.8,65.1,69.8,65.1L69.8,65.1
				c0.4-0.5,7.9-10.7,16.1-13.3c2.4-0.8,5.4-0.4,8.1,0.7c-3.2-2.5-5.3-7.3-4.7-11C90.6,33,99.6,24,100,23.5l0,0c0,0,0,0,0,0
				c0,0,0,0,0,0l0,0c0.2,0.2,1.8,2.4,3.5,5.5L113,0H89.4L79,46L68.4,0L45.8,0.1L35.4,46L24.8,0H0l9.5,29.3c1.8-3.2,3.5-5.5,3.7-5.8
				l0,0c0,0,0,0,0,0c0,0,0,0,0,0l0,0c0.4,0.4,9.4,9.5,10.7,17.9c0.6,3.8-1.5,8.6-4.7,11c2.6-1.1,5.7-1.4,8.1-0.7
				c8.1,2.6,15.7,12.8,16.1,13.3l0,0c0,0,0,0,0,0c0,0,0,0,0,0l0,0c-0.4,0.2-7.5,4-14.6,5h17.8l10-41.9l9.7,41.9h18.2
				C77.3,69.1,70.3,65.3,69.8,65.1z"/>
			<path class="st6" d="M77.4,63.4c0.4,0.2,7.5,3.9,13.6,4l4.6-14c-1.9-0.7-4.1-0.9-5.8-0.3C83.5,55.1,77.7,63,77.4,63.4L77.4,63.4
				C77.4,63.4,77.4,63.4,77.4,63.4C77.4,63.4,77.4,63.4,77.4,63.4L77.4,63.4z"/>
		</g>
		<path class="st16" d="M346.2,0l-15.3,36.6L315.6,0h-24.5v70.1h20.2V31.7l12,31.6h15.2l12-31.6v38.4h20.2V0H346.2z M358.1,58.5
			C358.1,58.5,358.1,58.5,358.1,58.5L358.1,58.5C358.1,58.5,358.1,58.5,358.1,58.5c2.3-4.1,3.5-9.9,0.3-17.7
			c-5.6-13.3,2-20.9,5.6-23.7c0,0,0,0,0,0l0,0c0,0,0,0,0,0c-2.3,4.1-3.5,9.9-0.3,17.7C369.2,48.1,361.7,55.7,358.1,58.5z"/>
		<path d="M652.4,118.3l-14.8,35.3l-14.8-35.3h-23.7V186h19.5v-37.1l11.6,30.5H645l11.6-30.5V186h19.5v-67.7H652.4z"/>
		<path class="st5" d="M522.6,0v36L494.9,0h-19.4v70.1h21.1V34.3l27.6,35.8h19.4V0H522.6z M522,56L522,56C522,56,522,55.9,522,56
			c-0.7-4.6-3.2-10-10.6-14.2c-12.5-7.2-11.2-17.8-10-22.1c0,0,0,0,0,0l0,0c0,0,0,0,0,0c0.7,4.6,3.2,10,10.6,14.2
			C524.5,41,523.2,51.6,522,56C522,55.9,522,56,522,56z M531.1,58.5C531.1,58.5,531.1,58.5,531.1,58.5L531.1,58.5
			C531.1,58.5,531.1,58.5,531.1,58.5c2.3-4.1,3.5-9.9,0.3-17.7c-5.6-13.3,2-20.9,5.6-23.7c0,0,0,0,0,0l0,0c0,0,0,0,0,0
			c-2.3,4.1-3.5,9.9-0.3,17.7C542.2,48.1,534.7,55.7,531.1,58.5z"/>
		<path class="st11" d="M70.5,118.3v17.7h19.2v50h22.4v-50h19.3v-17.7H70.5z M99.2,175.4C99.2,175.4,99.2,175.4,99.2,175.4
			L99.2,175.4C99.2,175.4,99.2,175.4,99.2,175.4c2.1-4.2,2.9-10.1-0.8-17.6c-6.3-13,0.8-21,4.2-23.9c0,0,0,0,0,0l0,0c0,0,0,0,0,0
			c-2,4.2-2.9,10.1,0.8,17.6C109.7,164.4,102.6,172.5,99.2,175.4z"/>
		<path class="st17" d="M417.2,118.3v26.3h-21v-26.3h-22.4V186h22.4v-24.4h21V186h22.4v-67.7H417.2z M420.1,148
			c-2.4,3.8-9.3,12-23.1,7.7c-8-2.5-13.7-0.8-17.6,1.8c0,0,0,0,0,0l0,0c0,0,0,0,0,0c2.4-3.8,9.3-12,23.1-7.7
			C410.6,152.4,416.3,150.7,420.1,148C420.1,148,420.1,148,420.1,148L420.1,148C420.1,148,420.1,148,420.1,148z M426.2,174.7
			C426.2,174.7,426.2,174.7,426.2,174.7L426.2,174.7C426.2,174.7,426.2,174.7,426.2,174.7c2.2-4.1,3.3-10-0.1-17.7
			c-5.9-13.2,1.5-21,5-23.8c0,0,0,0,0,0l0,0c0,0,0,0,0,0c-2.2,4.1-3.3,10,0.1,17.7C437.1,164.1,429.7,171.9,426.2,174.7z"/>
		<path class="st20" d="M211.5,28.2l25-28.2h-26.7l-20.9,24.3V0h-23.2v70.1h23.2V53.6l6.8-7.6l14.6,24.1H238L211.5,28.2z
			 M174.8,56.3C174.8,56.3,174.8,56.3,174.8,56.3L174.8,56.3C174.8,56.3,174.8,56.3,174.8,56.3c2.1-4.2,2.9-10.1-0.8-17.6
			c-6.3-13,0.8-21,4.2-23.9c0,0,0,0,0,0l0,0c0,0,0,0,0,0c-2.1,4.2-2.9,10.1,0.8,17.6C185.3,45.4,178.2,53.4,174.8,56.3z M188.8,31.4
			C188.8,31.4,188.8,31.4,188.8,31.4L188.8,31.4C188.8,31.4,188.8,31.4,188.8,31.4c4.5-1.1,9.6-4.1,13.1-11.8
			c6-13.1,16.7-12.8,21.1-12c0,0,0,0,0,0l0,0c0,0,0,0,0,0c-4.5,1.1-9.6,4.1-13.1,11.8C204,32.6,193.2,32.2,188.8,31.4z M207.8,49.3
			c-3.1-7.8-8-11.2-12.5-12.5c0,0,0,0,0,0l0,0c0,0,0,0,0,0c4.5-0.5,15.2-0.3,20.4,13.1c3.1,7.8,8,11.2,12.5,12.5c0,0,0,0,0,0l0,0
			c0,0,0,0,0,0C223.8,63,213.1,62.8,207.8,49.3z"/>
		<g>
			<path class="st18" d="M234.7,171.7c0.5,0,10.4-1,15.4-5.5c-4.6-1.9-7.7-6.4-8.4-12.1c-0.9,0.5-1.7,1.1-2.3,1.9
				C235.2,161.3,234.7,171.2,234.7,171.7L234.7,171.7C234.7,171.7,234.7,171.7,234.7,171.7C234.7,171.7,234.7,171.7,234.7,171.7
				L234.7,171.7z"/>
			<path class="st18" d="M249.1,136.9c0.2,0.2,0.3,0.5,0.4,0.7c1.8-0.9,3.8-1.4,6.1-1.4c5.2,0,11.3,3.6,15.4,9.1l12.9-15.4
				c-7-7.5-18.3-12.4-28.6-12.4c-9.3,0-17.5,2.8-23.8,7.6C232.5,125.6,244.3,129.9,249.1,136.9z"/>
			<path class="st18" d="M236.1,147.7c0.9,2,3.1,3.8,5.4,4.6c0-0.2,0-0.4,0-0.7c0-5.6,2.3-10.3,6.1-13c-4.3-4.5-11.9-7.2-12.3-7.4
				l0,0c0,0,0,0,0,0c0,0,0,0,0,0l0,0C235.2,131.8,233.3,141.6,236.1,147.7z"/>
			<path class="st18" d="M255.6,167.3c-1.3,0-2.6-0.2-3.8-0.5c-0.6,1.4-1.5,2.6-2.5,3.5c-6.5,5.8-19.4,7.1-20,7.1l0,0c0,0,0,0,0,0
				c0,0,0,0,0,0l0,0c0-0.6,0.7-13.5,6.1-20.3c1.4-1.8,3.7-3.1,6.2-3.7c0-0.1,0-0.2,0-0.4c-3.8-0.6-7.7-3.3-9.2-6.6
				c-3.5-7.7-1.3-19.9-1.1-21.1c-8,6.2-12.8,15.6-12.8,26.7c0,20.2,15.1,35,35.8,35c10.4,0,21.9-5.3,29.5-13.5l-12.9-13.8
				C266.5,164.3,260.4,167.3,255.6,167.3z"/>
		</g>
		<g>
			<path class="st19" d="M546.4,141c0,0.5,1,10.2,5.3,15.2c1.8,2,5.2,3.1,8.1,2.8v-14.6C554.5,141.4,546.8,141,546.4,141L546.4,141
				C546.4,141,546.4,141,546.4,141C546.4,141,546.4,141,546.4,141L546.4,141z"/>
			<path class="st19" d="M557,179.2C557,179.2,557,179.3,557,179.2L557,179.2c0.5-0.2,9.5-3.9,13-9.5c0.4-0.7,0.8-1.5,0.9-2.4h-11.2
				v-7.5c-1.2,0.9-2.2,2.1-2.7,3.3C554.6,169.2,556.9,178.8,557,179.2L557,179.2C557,179.2,557,179.2,557,179.2z"/>
			<path class="st19" d="M571.9,167.3c0.1,2.4-0.4,4.7-1.5,6.5c-4.2,6.7-14.5,11.3-16.5,12.1H588v-18.6H571.9z"/>
			<path class="st19" d="M553.6,165.2c1-2.3,3.2-4.5,5.7-5.8c-3.9,0.9-9-0.6-11.5-3.5c-5.6-6.4-6.8-19.1-6.9-19.7l0,0c0,0,0,0,0,0
				c0,0,0,0,0,0l0,0c0.6,0,12,0.7,18.8,5.3v-23.3h-22.4V186h16.1C553.1,184.5,550.5,172.8,553.6,165.2z"/>
		</g>
		<g>
			<path class="st3" d="M654.2,52.5c-0.5,0-10.2,0.9-15.2,5.3c-0.7,0.6-1.3,1.5-1.8,2.4h12.3l1.7,4.9
				C653.8,59.8,654.2,52.9,654.2,52.5L654.2,52.5C654.2,52.5,654.2,52.5,654.2,52.5C654.2,52.5,654.2,52.4,654.2,52.5L654.2,52.5z"
				/>
			<path class="st3" d="M618,52.5c0,0.4,0.5,7.7,3.2,13l1.9-5.3H635c-0.5-1-1.1-1.8-1.8-2.4C628.2,53.4,618.5,52.5,618,52.5
				L618,52.5C618,52.4,618,52.5,618,52.5C618,52.5,618,52.5,618,52.5L618,52.5z"/>
			<path class="st3" d="M649.2,0h-23.8l-29.6,70.1h23.8l0.7-1.8c-0.5-0.4-1-0.9-1.4-1.4c-5.4-6.6-6.1-19.3-6.2-19.9l0,0c0,0,0,0,0,0
				c0,0,0,0,0,0l0,0c0.6,0.1,13.3,1.2,19.7,6.8c1.7,1.5,2.9,3.9,3.5,6.4h0.6c0.5-2.5,1.7-4.9,3.5-6.4c6.4-5.6,19.1-6.8,19.7-6.8l0,0
				c0,0,0,0,0,0c0,0,0,0,0,0l0,0c0,0.6-0.8,13.3-6.2,19.9c-0.3,0.4-0.8,0.8-1.2,1.2l0.7,2h24.7L649.2,0z M629.2,43.6l7.4-20.5
				l7.2,20.5H629.2z"/>
		</g>
	</g>
</g>
<g id="Layer_2">
</g>
</svg>
